<svg xmlns="http://www.w3.org/2000/svg" viewBox="0 0 520 160" width="520" height="160">
  <title>HUMO</title>
  <defs>
    <linearGradient id="hg" x1="0" y1="0" x2="1" y2="1">
      <stop offset="0" stop-color="#F5A623"/>
      <stop offset="1" stop-color="#E8590C"/>
    </linearGradient>
  </defs>
  <!-- Humo bird wing mark -->
  <g fill="url(#hg)">
    <path d="M78 118c-30-6-52-26-58-56 22 4 34 14 42 28 2-16-4-32-18-46C68 46 86 62 92 84c6-14 4-30-4-46 22 10 34 30 32 54-1 12-8 22-18 26h-24z"/>
    <path d="M96 32c8-8 20-12 34-12-6 10-14 16-24 20-3-3-6-6-10-8z"/>
  </g>
  <!-- Wordmark -->
  <g fill="#1B4F72" font-family="Arial, Helvetica, sans-serif" font-weight="bold">
    <text x="140" y="108" font-size="88" letter-spacing="4">HUMO</text>
  </g>
</svg>
