<svg xmlns="http://www.w3.org/2000/svg" viewBox="0 0 1000 324" width="1000" height="324">
  <title>Visa</title>
  <path fill="#1434CB" d="M651.19.5c-70.933 0-134.32 36.766-134.32 104.69 0 77.9 112.42 83.281 112.42 122.42 0 16.478-18.884 31.229-51.137 31.229-45.773 0-79.984-20.611-79.984-20.611l-14.638 68.547s39.41 17.41 91.734 17.41c77.552 0 138.58-38.571 138.58-107.66 0-82.316-112.89-87.536-112.89-123.86 0-12.908 15.502-27.052 47.663-27.052 36.287 0 65.892 14.99 65.892 14.99l14.326-66.204S696.614.5 651.18.5zM2.218 5.497 .5 15.49s29.842 5.461 56.719 16.356c34.606 12.492 37.072 19.765 42.9 42.354l63.51 244.83h85.137L379.93 5.497h-84.942l-84.278 213.17-34.39-180.7c-3.154-20.68-19.13-32.477-38.684-32.477zm411.87 0-66.634 313.53h80.999l66.4-313.53zm451.76 0c-19.532 0-29.88 10.457-37.474 28.73L709.699 319.03h84.942l16.434-47.467h103.48l9.993 47.467h74.948L934.115 5.497zm11.047 84.707 25.178 117.65h-67.454z"/>
</svg>
